<mxfile host="app.diagrams.net" modified="2023-07-19T08:22:50.656Z" agent="Mozilla/5.0 (Windows NT 10.0; Win64; x64; rv:109.0) Gecko/20100101 Firefox/115.0" version="21.6.3" etag="usVMR5k5Qz4oyIPG7gYO" type="github">
  <diagram name="Page-1" id="DNbu0Xdj9kla48PALPli">
    <mxGraphModel>
      <root>
        <mxCell id="0" />
        <mxCell id="1" parent="0" />
      </root>
    </mxGraphModel>
  </diagram>
</mxfile>
